<?xml version="1.0" standalone="no"?>
<!DOCTYPE svg PUBLIC "-//W3C//DTD SVG 20010904//EN"
 "http://www.w3.org/TR/2001/REC-SVG-20010904/DTD/svg10.dtd">
<svg version="1.0" xmlns="http://www.w3.org/2000/svg"
 width="341.000000pt" height="380.000000pt" viewBox="0 0 341.000000 380.000000"
 preserveAspectRatio="xMidYMid meet">

<g transform="translate(0.000000,380.000000) scale(0.100000,-0.100000)"
fill="#000000" stroke="none">
<path d="M1509 3220 c-104 -18 -161 -32 -153 -39 5 -4 55 -25 112 -46 56 -21
105 -41 107 -45 2 -4 -76 -38 -175 -76 -99 -38 -180 -71 -180 -75 0 -3 81 -37
180 -75 99 -38 180 -71 180 -74 0 -3 -83 -36 -185 -75 -101 -38 -181 -72 -177
-76 4 -3 81 -34 172 -68 204 -78 202 -77 170 -89 -144 -55 -345 -134 -348
-136 -1 -2 66 -29 150 -61 223 -85 224 -86 208 -95 -8 -4 -89 -36 -180 -70
-91 -35 -168 -66 -172 -69 -4 -4 76 -38 177 -76 102 -39 185 -72 185 -75 0 -3
-81 -36 -180 -74 -99 -38 -180 -72 -180 -75 0 -4 81 -37 181 -75 99 -38 176
-72 172 -76 -4 -4 -88 -38 -186 -76 -103 -39 -172 -71 -165 -75 7 -4 87 -35
178 -69 91 -35 169 -66 173 -70 5 -4 -26 -21 -70 -38 -43 -17 -127 -49 -188
-73 -84 -32 -105 -44 -90 -50 279 -107 341 -131 347 -137 4 -4 -73 -39 -172
-77 -99 -38 -180 -72 -180 -75 0 -4 81 -37 180 -75 99 -38 177 -72 173 -76 -5
-4 -57 -27 -118 -50 -125 -48 -124 -49 29 -74 134 -22 342 -19 471 5 479 93
863 430 1018 892 38 114 58 227 64 368 29 664 -449 1254 -1106 1364 -99 17
-338 20 -422 6z"/>
</g>
</svg>
