<?xml version="1.0" standalone="no"?>
<!DOCTYPE svg PUBLIC "-//W3C//DTD SVG 20010904//EN"
 "http://www.w3.org/TR/2001/REC-SVG-20010904/DTD/svg10.dtd">
<svg version="1.0" xmlns="http://www.w3.org/2000/svg"
 width="266.000000pt" height="190.000000pt" viewBox="0 0 266.000000 190.000000"
 preserveAspectRatio="xMidYMid meet">

<g transform="translate(0.000000,190.000000) scale(0.100000,-0.100000)"
fill="#000000" stroke="none">
<path d="M1314 1685 c-20 -44 -26 -65 -17 -65 7 0 12 3 12 8 -4 26 3 33 34 30
23 -2 32 -8 31 -20 -1 -13 5 -18 21 -18 13 0 32 -3 42 -6 11 -3 14 -2 7 3 -6
4 -22 36 -35 71 -33 85 -54 85 -95 -3z m46 -2 c0 -7 -9 -13 -20 -13 -17 0 -18
3 -8 25 8 19 14 22 20 13 4 -7 8 -19 8 -25z"/>
<path d="M1237 1700 l6 -45 -43 38 c-25 23 -48 36 -57 33 -8 -3 -22 -6 -31 -6
-12 0 -13 -3 -5 -8 16 -10 44 -102 36 -116 -4 -8 -2 -8 6 0 9 8 9 18 1 38 -18
48 -11 51 28 13 52 -51 72 -49 71 6 -1 23 -5 53 -10 67 -6 18 -7 12 -2 -20z"/>
<path d="M1467 1726 c-4 -9 2 -11 20 -8 24 5 25 3 19 -24 -19 -84 -19 -94 -3
-94 8 0 23 -3 33 -7 12 -4 15 -3 10 6 -4 6 -2 34 4 62 l12 50 25 -17 c19 -12
24 -12 21 -2 -8 25 -133 55 -141 34z"/>
<path d="M1013 1684 c-9 -4 -9 -11 -1 -30 9 -20 8 -28 -5 -42 -16 -15 -18 -14
-29 15 -12 31 -12 31 -41 16 -17 -8 -26 -18 -21 -22 15 -9 54 -80 54 -96 0
-11 5 -11 29 3 27 15 28 18 14 39 -8 12 -12 27 -8 33 10 17 33 11 40 -10 6
-20 21 -25 48 -14 14 5 13 8 -1 25 -9 10 -22 19 -28 19 -7 0 -9 10 -6 26 6 33
-15 50 -45 38z"/>
<path d="M1643 1684 c7 -8 -38 -101 -52 -106 -6 -1 8 -11 30 -20 21 -9 36 -12
33 -6 -9 14 37 109 49 101 6 -3 7 -1 4 4 -4 6 -21 16 -39 22 -17 6 -29 8 -25
5z"/>
<path d="M1719 1616 c-37 -18 -38 -74 -3 -106 23 -22 25 -22 14 -4 -11 18 -10
27 9 58 23 36 48 45 69 24 13 -13 2 -40 -35 -79 -21 -23 -22 -27 -8 -33 25 -9
64 4 75 24 17 31 11 58 -17 84 -38 36 -75 47 -104 32z"/>
<path d="M849 1583 c-13 -15 -12 -15 7 -5 12 6 25 8 29 4 5 -4 5 -1 1 6 -10
16 -21 15 -37 -5z"/>
<path d="M789 1533 c-13 -14 -19 -23 -13 -20 7 4 24 -9 38 -28 32 -42 66 -46
106 -11 20 16 25 27 19 37 -7 11 -9 11 -9 -2 0 -9 -7 -22 -15 -29 -13 -10 -19
-9 -36 6 -18 17 -19 19 -4 30 9 7 12 15 6 18 -5 3 -11 0 -14 -6 -3 -9 -12 -6
-29 10 l-24 22 -25 -27z"/>
<path d="M1210 1534 c-71 -15 -125 -36 -182 -71 -32 -19 -52 -23 -123 -23
l-85 0 0 -86 c0 -75 -4 -94 -31 -150 -154 -323 8 -716 344 -834 93 -33 196
-44 281 -31 308 45 526 289 530 591 1 107 -13 175 -55 269 -25 55 -29 76 -29
152 l0 89 -92 0 c-51 1 -241 0 -421 0 -204 0 -326 3 -323 9 14 22 163 73 246
84 107 13 215 -5 317 -52 36 -17 68 -29 71 -26 10 9 -126 66 -194 80 -85 18
-168 18 -254 -1z m463 -253 c59 -28 119 -89 149 -149 19 -38 23 -63 23 -132 0
-73 -4 -92 -27 -135 -87 -164 -278 -220 -436 -128 l-44 25 25 26 c31 35 57 74
57 87 0 5 -9 -5 -20 -22 -11 -18 -21 -33 -23 -33 -1 0 -1 19 0 43 2 23 0 36
-3 30 -8 -18 -24 -16 -24 2 0 19 -2 19 -49 -5 -47 -25 -62 -60 -26 -60 13 0
30 -8 37 -18 7 -11 20 -21 28 -25 11 -4 10 -7 -7 -12 -13 -4 -21 -11 -18 -15
2 -4 -22 -19 -54 -34 -112 -50 -232 -30 -325 55 -132 120 -134 313 -6 438 95
92 264 108 375 35 14 -9 24 -19 21 -21 -3 -3 -15 2 -27 11 -13 9 -27 12 -33 7
-17 -13 -112 -41 -140 -41 -13 0 -26 5 -28 11 -6 18 -68 1 -68 -18 0 -14 2
-14 18 0 23 21 29 21 29 2 0 -19 -34 -30 -52 -15 -9 7 -15 8 -20 0 -3 -5 -15
-10 -26 -10 -10 0 -19 -4 -19 -10 0 -5 -7 -7 -15 -4 -10 4 -15 0 -15 -11 0
-12 5 -15 16 -11 25 10 57 -3 77 -30 11 -14 17 -27 15 -30 -9 -8 -66 17 -72
32 -18 46 -116 -17 -116 -75 0 -31 22 -61 45 -61 16 0 48 -56 43 -73 -3 -7 5
-31 16 -55 19 -38 23 -41 39 -30 10 8 19 20 21 28 2 8 6 23 11 33 4 9 5 24 1
32 -3 8 6 27 19 41 24 26 34 51 16 40 -11 -7 -37 22 -45 52 -11 33 7 27 22 -8
15 -34 20 -36 48 -16 19 15 19 15 -1 30 -18 13 -16 14 19 2 23 -8 43 -22 48
-35 8 -24 28 -29 28 -7 0 23 33 29 50 9 19 -23 45 -24 45 -1 0 9 8 25 18 36
16 17 17 24 7 43 -10 18 -10 21 1 17 24 -9 22 53 -2 78 -24 25 -10 41 21 24
11 -6 20 -8 20 -4 0 16 34 -24 61 -71 16 -27 29 -45 29 -40 0 15 -39 76 -67
106 l-24 27 36 22 c88 55 211 63 298 21z m-832 -558 c56 -147 207 -282 388
-343 39 -14 71 -27 71 -31 0 -11 -110 11 -176 36 -88 33 -163 85 -229 158
-163 180 -199 434 -94 662 12 26 15 3 19 -205 5 -177 10 -245 21 -277z m1074
367 c19 -75 21 -215 4 -285 -51 -211 -226 -391 -427 -439 -133 -32 -173 -26
-57 8 139 42 293 152 352 253 53 91 64 151 70 382 6 212 6 214 24 179 9 -18
25 -63 34 -98z m-850 30 c3 -5 -1 -10 -9 -10 -9 0 -16 5 -16 10 0 6 4 10 9 10
6 0 13 -4 16 -10z m35 -9 c0 -6 -4 -13 -10 -16 -5 -3 -10 1 -10 9 0 9 5 16 10
16 6 0 10 -4 10 -9z m-34 -497 c38 -26 105 -58 108 -52 19 42 48 57 83 44 13
-6 13 -9 -1 -31 -20 -30 -6 -33 20 -4 36 40 74 52 157 50 44 0 83 -4 89 -7 6
-4 -7 -15 -28 -25 -22 -10 -30 -17 -19 -15 11 3 49 7 85 11 l65 6 -25 -21
c-52 -43 -75 -55 -124 -61 l-51 -6 48 -2 c26 0 47 -5 47 -9 0 -12 -90 -42
-125 -42 -16 0 -48 11 -71 23 l-40 24 4 -28 c5 -34 -13 -45 -45 -28 -21 11
-24 19 -20 45 5 31 5 31 -71 54 -57 18 -86 33 -109 58 -49 52 -40 58 23 16z"/>
<path d="M1572 1278 c-7 -7 -12 -17 -12 -22 1 -15 50 -49 58 -41 4 4 3 9 -3
12 -24 9 -39 22 -32 29 4 4 21 -2 37 -14 39 -29 54 -29 39 1 -23 43 -63 59
-87 35z"/>
<path d="M1400 1258 c-25 -11 -25 -11 10 -18 41 -7 44 -6 37 15 -7 17 -13 18
-47 3z"/>
<path d="M1457 1228 c-23 -13 -21 -38 3 -38 22 0 40 -28 40 -63 0 -28 62 -99
107 -121 28 -14 32 -14 27 -1 -4 8 -17 18 -31 21 -33 9 -26 39 9 39 15 -1 25
1 23 3 -2 3 5 22 16 43 12 24 15 39 8 39 -9 0 -9 4 0 14 9 11 6 16 -18 24 -27
10 -29 9 -27 -12 1 -12 5 -27 9 -33 4 -6 0 -13 -8 -17 -11 -4 -15 1 -15 18 0
13 -6 26 -14 29 -9 4 -12 14 -9 25 2 11 -1 23 -8 27 -8 5 -10 4 -5 -3 10 -16
-17 -15 -58 2 -22 9 -38 10 -49 4z"/>
<path d="M976 1198 c3 -5 10 -6 15 -3 13 9 11 12 -6 12 -8 0 -12 -4 -9 -9z"/>
<path d="M1337 1131 c-4 -17 -3 -21 5 -13 5 5 8 16 6 23 -3 8 -7 3 -11 -10z"/>
<path d="M1431 1074 c0 -11 3 -14 6 -6 3 7 2 16 -1 19 -3 4 -6 -2 -5 -13z"/>
<path d="M1443 1000 c0 -25 2 -35 4 -22 2 12 2 32 0 45 -2 12 -4 2 -4 -23z"/>
<path d="M1674 1002 c-18 -12 -24 -54 -13 -99 10 -38 9 -47 -15 -89 -14 -26
-26 -56 -26 -68 1 -19 2 -19 15 6 8 14 42 44 76 66 34 22 70 55 81 73 19 32
19 33 2 46 -11 7 -25 17 -31 23 -30 25 -79 49 -89 42z"/>
<path d="M1247 975 c-4 -8 -3 -16 1 -19 4 -3 9 4 9 15 2 23 -3 25 -10 4z"/>
<path d="M1281 971 c-8 -6 -9 -11 -3 -15 6 -3 14 -1 17 5 9 14 2 20 -14 10z"/>
<path d="M1355 950 c19 -21 55 -45 55 -37 0 10 -37 44 -54 51 -20 7 -20 7 -1
-14z"/>
<path d="M1431 924 c0 -11 3 -14 6 -6 3 7 2 16 -1 19 -3 4 -6 -2 -5 -13z"/>
<path d="M1050 875 c0 -14 2 -25 4 -25 2 0 6 11 8 25 3 14 1 25 -3 25 -5 0 -9
-11 -9 -25z"/>
<path d="M1373 583 c9 -2 23 -2 30 0 6 3 -1 5 -18 5 -16 0 -22 -2 -12 -5z"/>
<path d="M1385 556 c-48 -12 -49 -13 -26 -25 13 -7 20 -8 17 -2 -4 6 10 15 34
21 22 6 40 13 40 15 0 6 -2 6 -65 -9z"/>
<path d="M1268 533 c7 -3 16 -2 19 1 4 3 -2 6 -13 5 -11 0 -14 -3 -6 -6z"/>
<path d="M1408 473 c7 -3 16 -2 19 1 4 3 -2 6 -13 5 -11 0 -14 -3 -6 -6z"/>
<path d="M1898 1521 c1 -3 -12 -21 -30 -40 -18 -20 -22 -27 -9 -16 l24 20 -6
-62 c-4 -35 -3 -65 3 -68 5 -3 28 8 50 24 23 16 46 31 52 33 7 3 8 10 3 17 -6
11 -10 10 -17 -3 -5 -8 -17 -20 -27 -25 -16 -9 -18 -6 -13 37 3 36 0 52 -14
68 -11 11 -18 18 -16 15z"/>
<path d="M709 1443 c-46 -61 -52 -73 -41 -73 5 0 12 9 15 20 7 28 18 25 65
-18 l41 -38 13 24 c10 20 10 26 -3 36 -8 6 -28 22 -45 34 l-29 24 24 19 c14
12 18 19 9 19 -8 0 -30 -21 -49 -47z"/>
<path d="M637 1343 c-4 -3 -7 -11 -7 -16 0 -6 3 -8 6 -4 9 8 64 -21 64 -33 0
-6 -12 -10 -27 -10 -47 0 -70 -11 -82 -37 -7 -14 -9 -28 -6 -31 3 -3 5 0 5 7
0 7 4 10 8 7 28 -17 112 -44 112 -36 0 6 -8 10 -17 10 -10 1 -29 7 -42 14 -23
13 -21 13 28 20 35 5 54 13 61 25 8 17 3 23 -38 47 -26 15 -50 31 -53 36 -3 4
-8 5 -12 1z"/>
<path d="M1954 1319 c-3 -6 -1 -16 5 -22 9 -9 11 -8 6 6 -6 14 -1 17 26 17
l34 0 -41 -38 c-39 -37 -40 -38 -27 -71 l14 -33 32 43 c18 23 38 50 45 59 22
30 5 50 -43 50 -24 0 -47 -5 -51 -11z"/>
<path d="M1905 1310 c3 -5 8 -10 11 -10 2 0 4 5 4 10 0 6 -5 10 -11 10 -5 0
-7 -4 -4 -10z"/>
<path d="M2099 1182 c-5 -16 -109 -45 -109 -29 0 5 -2 8 -4 6 -9 -8 21 -113
32 -115 7 -1 8 0 2 3 -5 2 -10 15 -10 28 0 19 8 25 50 35 27 6 54 9 59 6 7 -5
7 3 1 21 -4 15 -10 35 -13 43 -3 11 -5 12 -8 2z"/>
<path d="M560 1147 c0 -8 -3 -23 -7 -33 -4 -12 -3 -15 6 -10 16 10 111 -13
112 -27 1 -12 16 30 18 49 1 6 -14 14 -31 17 -18 3 -48 9 -65 13 -26 5 -33 3
-33 -9z"/>
<path d="M590 970 c0 -5 -8 -10 -17 -10 -13 0 -14 -3 -6 -11 6 -6 9 -19 5 -28
-5 -13 -3 -14 9 -4 12 10 18 10 27 1 9 -9 12 -7 12 9 0 12 6 24 13 26 7 3 5 6
-5 6 -10 1 -18 6 -18 11 0 6 -4 10 -10 10 -5 0 -10 -4 -10 -10z"/>
<path d="M2070 965 c0 -8 -8 -15 -17 -15 -13 0 -14 -3 -6 -11 6 -6 9 -19 5
-28 -5 -13 -3 -14 9 -4 12 10 18 10 29 0 10 -10 12 -9 7 4 -3 9 -2 20 2 25 5
5 0 17 -10 27 -16 14 -19 14 -19 2z"/>
<path d="M658 848 c-5 -12 -19 -18 -40 -19 -25 0 -29 -2 -14 -8 17 -7 15 -10
-18 -30 -43 -27 -42 -45 1 -49 22 -2 38 4 60 25 25 24 28 33 23 63 -4 26 -7
31 -12 18z"/>
<path d="M540 819 c0 -5 9 -9 20 -9 11 0 20 2 20 4 0 2 -9 6 -20 9 -11 3 -20
1 -20 -4z"/>
<path d="M2028 819 c-10 -5 -22 -18 -28 -28 -8 -16 -7 -18 10 -14 22 6 92 -15
102 -31 4 -6 8 1 8 16 0 17 -9 34 -26 47 -30 23 -41 25 -66 10z"/>
<path d="M1978 728 c-4 -22 1 -26 55 -41 33 -10 61 -17 62 -15 1 2 5 12 9 23
5 18 -1 23 -41 34 -27 7 -55 15 -64 18 -11 3 -18 -3 -21 -19z"/>
<path d="M640 732 c0 -4 -16 -14 -36 -21 -25 -9 -34 -17 -30 -28 3 -8 6 -18 6
-23 0 -4 23 1 51 11 29 11 58 18 65 15 17 -6 17 -5 4 28 -7 19 -17 26 -35 26
-14 0 -25 -4 -25 -8z"/>
<path d="M1950 659 c0 -4 16 -13 35 -20 46 -17 44 -26 -8 -34 -47 -7 -55 -11
-74 -36 -10 -12 -10 -16 0 -16 21 0 97 -55 90 -66 -4 -6 -1 -7 7 -2 10 6 4 15
-21 36 l-34 27 28 6 c15 3 38 8 52 11 13 3 29 14 35 25 9 18 4 23 -50 48 -33
16 -60 25 -60 21z"/>
<path d="M640 640 c-20 -20 -25 -45 -14 -75 6 -14 8 -13 18 5 6 12 23 29 39
38 23 14 30 15 48 4 17 -11 20 -11 14 0 -30 51 -71 62 -105 28z"/>
<path d="M712 560 c-24 -16 -51 -26 -60 -23 -11 3 -9 -3 7 -16 13 -12 32 -21
42 -21 27 0 59 35 59 65 0 14 -1 25 -2 24 -2 0 -23 -13 -46 -29z"/>
<path d="M755 498 c-22 -21 -46 -38 -53 -38 -7 0 -10 -5 -7 -10 4 -6 19 0 37
15 17 14 33 24 36 21 2 -3 -1 -26 -7 -52 -10 -40 -10 -50 4 -63 14 -14 20 -11
63 34 26 27 32 36 15 20 -18 -15 -35 -27 -37 -24 -3 2 0 25 5 51 8 37 7 52 -3
65 -12 17 -16 15 -53 -19z"/>
<path d="M1866 521 c-4 -6 -3 -11 3 -11 5 0 26 -15 45 -34 20 -18 36 -30 36
-27 0 16 -78 82 -84 72z"/>
<path d="M1812 458 l-20 -21 45 -38 c24 -22 50 -36 56 -33 22 12 57 47 57 56
0 5 -7 2 -16 -6 -22 -23 -27 -21 -67 23 l-35 39 -20 -20z"/>
<path d="M892 425 c8 -8 -14 -43 -51 -82 l-20 -21 37 -28 c20 -16 30 -20 22
-10 -13 16 -12 20 8 36 12 10 22 23 22 28 0 5 7 16 16 23 14 11 19 10 35 -10
11 -13 19 -17 19 -10 -1 8 -22 29 -48 48 -26 19 -44 31 -40 26z"/>
<path d="M1752 408 c-8 -10 -5 -13 13 -13 18 0 21 3 13 13 -6 6 -12 12 -13 12
-1 0 -7 -6 -13 -12z"/>
<path d="M1703 370 c-12 -10 -18 -21 -13 -26 4 -5 19 -30 33 -55 23 -45 25
-46 46 -30 l22 17 -34 56 c-32 54 -33 55 -54 38z"/>
<path d="M1767 346 c-4 -10 -1 -13 8 -9 8 3 12 9 9 14 -7 12 -11 11 -17 -5z"/>
<path d="M994 339 c-3 -5 4 -9 15 -9 26 0 26 -13 1 -69 -11 -24 -19 -45 -18
-46 2 -1 12 -7 24 -13 18 -10 22 -6 40 40 22 58 32 67 49 44 9 -12 14 -13 18
-4 5 15 -120 71 -129 57z"/>
<path d="M1566 288 c-13 -49 -23 -54 -50 -29 -19 18 -31 22 -55 16 l-32 -7 41
-29 c24 -17 40 -37 40 -49 0 -26 19 -34 51 -21 13 5 19 10 13 10 -21 2 -23 45
-4 88 10 24 15 43 11 43 -5 0 -12 -10 -15 -22z"/>
<path d="M1129 247 c-18 -23 -36 -47 -41 -54 -5 -7 -5 -14 2 -18 6 -4 9 -1 8
7 -2 7 8 14 21 16 16 3 20 6 12 11 -9 6 -7 14 7 31 l19 23 7 -29 c5 -17 3 -30
-3 -32 -7 -2 -5 -10 5 -19 13 -13 13 -17 2 -24 -9 -6 -5 -9 14 -9 14 0 33 -2
41 -5 11 -5 11 5 -3 61 -21 90 -44 100 -91 41z"/>
<path d="M911 271 c-8 -5 -9 -11 -3 -15 5 -3 12 1 16 9 6 17 6 18 -13 6z"/>
<path d="M1274 206 c-1 -62 0 -64 25 -68 25 -4 26 -2 29 59 2 50 -1 63 -12 63
-8 0 -20 2 -28 5 -10 4 -13 -10 -14 -59z"/>
<path d="M1363 233 c-4 -43 -3 -87 1 -91 2 -2 16 -2 30 0 25 3 25 4 12 29 -12
23 -12 29 0 41 19 19 7 48 -20 48 -16 0 -22 -7 -23 -27z"/>
</g>
</svg>
