<?xml version="1.0" standalone="no"?>
<!DOCTYPE svg PUBLIC "-//W3C//DTD SVG 20010904//EN"
 "http://www.w3.org/TR/2001/REC-SVG-20010904/DTD/svg10.dtd">
<svg version="1.0" xmlns="http://www.w3.org/2000/svg"
 width="181px" height="80px" viewBox="0 0 2048.000000 897.000000"
 preserveAspectRatio="xMidYMid meet">

<g transform="translate(0.000000,897.000000) scale(0.100000,-0.100000)"
fill="#0c54a0" stroke="none">
<path d="M6669 7392 c-2011 -867 -3651 -1578 -3645 -1580 7 -1 1767 520 3912
1158 l3901 1161 2376 -1072 c1308 -590 2375 -1074 2373 -1076 -3 -3 -11970
-235 -12601 -244 l-110 -2 80 -8 c83 -9 14680 -263 14750 -257 36 3 -348 186
-3645 1747 -2027 960 -3696 1746 -3710 1748 -16 2 -1330 -560 -3681 -1575z"/>
<path d="M2790 4566 l0 -45 58 -6 c31 -4 68 -14 81 -22 l24 -16 -7 -461 c-7
-468 -13 -557 -35 -579 -6 -6 -40 -14 -74 -17 l-62 -5 -3 -42 -3 -43 184 0
c101 0 239 -3 306 -7 l122 -6 -3 44 -3 44 -64 7 c-35 4 -69 12 -75 18 -27 27
-15 996 12 1047 9 17 25 22 82 28 l70 7 0 42 0 41 -283 2 c-155 1 -292 5 -304
8 -21 5 -23 2 -23 -39z"/>
<path d="M3530 4549 c0 -42 0 -42 84 -53 21 -3 41 -8 44 -10 3 -3 9 -27 13
-53 20 -122 0 -942 -24 -992 -10 -22 -22 -27 -75 -34 l-62 -9 0 -39 0 -39 138
0 c75 0 215 -3 310 -7 l172 -6 0 40 0 41 -52 7 c-96 11 -109 16 -119 42 -18
49 -5 1011 15 1030 3 3 33 7 68 10 153 12 249 -62 264 -204 18 -166 -90 -290
-233 -268 -64 9 -78 -6 -53 -55 19 -37 22 -39 87 -46 252 -27 461 131 480 362
15 168 -71 277 -237 303 -36 5 -235 12 -442 14 l-378 5 0 -39z"/>
<path d="M5250 4569 c-165 -19 -288 -77 -395 -184 -125 -125 -176 -260 -177
-470 0 -143 17 -225 68 -327 71 -142 206 -245 384 -295 94 -26 406 -26 500 0
173 48 328 168 403 313 100 193 104 491 10 667 -38 70 -145 175 -218 214 -148
78 -355 107 -575 82z m242 -110 c125 -27 207 -93 263 -212 85 -178 84 -483 -1
-662 -52 -111 -171 -196 -292 -210 -72 -8 -182 9 -247 39 -108 50 -201 193
-231 356 -30 156 -7 385 48 495 83 162 259 237 460 194z"/>
<path d="M6227 4543 c-4 -3 -7 -75 -7 -160 l0 -153 45 0 c49 0 42 -13 62 120
l8 55 110 8 c61 5 139 5 174 2 l63 -7 -7 -316 c-7 -364 -21 -681 -31 -705 -7
-20 -63 -37 -121 -37 l-43 0 0 -42 0 -43 273 -2 c149 -1 291 -5 315 -8 l42 -6
0 45 0 44 -65 7 c-99 11 -99 12 -103 162 -5 175 16 885 27 896 11 11 311 -9
323 -21 6 -6 12 -46 15 -91 l6 -81 42 0 42 0 8 93 c4 50 11 116 15 145 5 29 7
58 4 65 -3 9 -64 11 -252 9 -232 -4 -888 13 -923 24 -8 2 -18 1 -22 -3z"/>
<path d="M7520 4479 c0 -41 2 -43 82 -54 25 -3 52 -13 59 -21 7 -8 14 -56 17
-112 4 -101 -14 -771 -25 -879 -6 -61 -6 -61 -54 -88 -38 -20 -49 -32 -49 -51
l0 -24 113 0 c61 0 261 -5 442 -11 182 -7 346 -9 365 -6 l36 7 12 133 c7 73
15 143 19 155 5 20 2 22 -39 22 l-45 0 -24 -92 -24 -93 -111 -8 c-62 -5 -165
-5 -230 0 l-119 8 -3 200 c-2 110 0 219 3 243 l6 42 92 -1 c121 0 224 -12 239
-27 7 -7 14 -41 16 -77 l4 -65 44 0 44 0 0 138 c0 75 3 167 7 205 l6 67 -46 0
-46 0 -6 -56 c-11 -86 -13 -87 -196 -83 -86 2 -160 6 -163 9 -6 6 14 423 21
430 3 3 73 4 156 4 151 -2 262 -15 281 -34 6 -6 12 -39 14 -75 l4 -65 39 0
c35 0 38 2 43 33 5 37 26 192 29 222 2 18 -6 21 -88 26 -49 4 -278 9 -507 11
l-418 5 0 -38z"/>
<path d="M8670 4463 c0 -45 12 -53 81 -53 19 0 44 -6 55 -14 18 -13 19 -30 22
-258 4 -261 -12 -724 -26 -772 -10 -37 -23 -43 -94 -51 l-58 -6 0 -40 0 -39
143 0 c78 0 213 -3 300 -7 l157 -6 0 41 0 41 -47 6 c-27 3 -59 9 -73 13 l-25
7 -3 248 c-2 210 0 247 12 247 17 0 181 -185 358 -403 68 -83 134 -163 148
-178 l25 -28 198 -3 197 -4 0 43 c0 38 -2 43 -24 43 -48 0 -84 23 -147 93
-149 164 -457 532 -482 574 -10 16 327 316 440 390 42 29 65 36 118 40 l65 6
0 43 0 44 -165 2 c-91 0 -171 1 -177 2 -8 1 -14 -15 -16 -43 -3 -42 -10 -50
-165 -205 -90 -89 -212 -204 -272 -256 l-110 -94 -3 44 c-1 25 1 134 6 244 9
222 11 226 81 226 69 0 81 8 81 51 l0 39 -163 0 c-90 0 -225 3 -300 7 l-137 6
0 -40z"/>
<path d="M10576 4068 c-208 -480 -337 -752 -358 -761 -9 -3 -36 -9 -62 -12
l-46 -7 0 -44 0 -44 198 0 c108 0 207 -3 220 -6 20 -6 22 -3 22 39 l0 45 -52
7 c-90 11 -91 12 -86 59 3 22 23 85 44 139 l38 97 186 0 c102 0 208 -3 237 -6
l52 -7 46 -125 c25 -68 45 -132 43 -141 -2 -12 -21 -18 -70 -25 l-66 -8 -5
-37 c-2 -20 -4 -37 -3 -37 1 -1 135 -4 299 -7 l297 -7 0 39 0 40 -56 11 -56
12 -38 81 c-21 45 -131 309 -245 587 -113 278 -210 509 -214 513 -4 4 -39 10
-77 13 l-69 6 -179 -414z m243 -128 c38 -96 77 -192 86 -212 l15 -38 -172 0
c-95 0 -179 4 -186 8 -10 7 9 59 80 220 51 116 96 208 99 204 4 -4 39 -86 78
-182z"/>
<path d="M12080 4401 c0 -38 1 -39 43 -46 90 -13 98 -17 109 -43 12 -33 4
-971 -9 -1017 -6 -18 -24 -40 -46 -54 -24 -16 -37 -32 -37 -46 l0 -23 293 -7
c201 -4 314 -3 362 5 148 23 276 114 338 239 29 59 32 74 31 151 -1 100 -16
141 -75 205 -45 48 -113 79 -198 91 -61 8 -73 19 -28 28 17 3 56 17 86 31 124
58 182 139 184 253 1 142 -74 223 -228 251 -33 5 -232 12 -442 15 l-383 5 0
-38z m676 -100 c62 -35 79 -71 79 -166 -1 -154 -58 -208 -237 -222 l-78 -6 0
150 c0 83 3 178 7 213 l6 62 91 -4 c71 -3 100 -9 132 -27z m-33 -513 c95 -32
147 -116 147 -239 0 -191 -87 -289 -257 -289 -39 0 -78 3 -87 6 -14 5 -16 36
-16 238 0 127 3 248 7 270 l6 39 84 -7 c45 -4 98 -12 116 -18z"/>
<path d="M13946 4388 c-90 -212 -392 -893 -441 -995 -36 -76 -71 -136 -83
-142 -11 -6 -39 -11 -61 -11 l-41 0 0 -47 0 -48 220 -2 220 -2 0 39 c0 43 1
43 -93 55 -27 4 -50 12 -53 20 -7 16 17 96 57 196 l30 77 232 -5 c128 -3 235
-8 238 -12 7 -7 67 -169 85 -228 12 -39 11 -44 -6 -53 -10 -5 -44 -10 -74 -10
l-56 0 0 -45 0 -45 223 0 c123 0 258 -3 300 -6 l77 -7 0 45 0 45 -51 6 c-28 4
-57 11 -64 17 -16 13 -81 165 -321 753 l-179 437 -72 0 c-73 0 -73 0 -87 -32z
m93 -542 c45 -109 81 -203 81 -207 0 -10 -199 -10 -302 0 l-67 6 97 218 c68
156 98 213 103 200 4 -10 43 -108 88 -217z"/>
<path d="M14810 4357 l0 -46 58 -7 c90 -11 100 -17 107 -68 9 -59 -13 -919
-24 -969 -5 -21 -12 -42 -16 -45 -4 -4 -37 -9 -73 -12 l-67 -5 -3 -42 -3 -43
169 0 c93 0 197 -3 231 -6 l61 -7 0 45 0 45 -62 7 c-35 3 -69 13 -78 21 -13
13 -15 59 -18 278 -1 144 1 331 5 416 l8 153 65 -83 c133 -173 686 -825 737
-871 19 -18 158 -52 178 -44 8 3 14 137 18 466 8 537 15 694 32 717 9 12 32
18 79 21 l66 4 0 44 0 44 -177 0 c-98 0 -202 3 -230 6 l-53 7 0 -45 0 -45 69
-7 c39 -4 74 -13 81 -21 16 -20 22 -259 13 -549 l-8 -249 -141 164 c-152 176
-410 491 -539 657 l-80 102 -180 0 c-99 0 -190 3 -202 6 -21 6 -23 3 -23 -39z"/>
<path d="M16390 4324 l0 -41 67 -6 c37 -4 71 -11 77 -17 8 -8 11 -157 10 -473
-1 -450 -7 -564 -34 -591 -6 -6 -39 -12 -75 -14 l-65 -4 0 -44 0 -44 239 0
c131 0 266 -3 300 -6 l61 -7 0 45 0 45 -62 7 c-42 4 -67 12 -75 23 -17 22 -19
478 -2 488 16 10 195 -191 443 -498 l87 -108 199 -4 200 -5 0 40 c0 35 -3 40
-27 45 -16 3 -39 9 -53 13 -14 4 -87 79 -174 177 -162 185 -411 484 -405 489
2 1 67 58 144 127 138 122 248 214 313 258 19 14 60 27 101 33 l69 10 4 39 4
39 -102 0 c-55 0 -135 3 -177 6 l-77 7 0 -38 c0 -34 -8 -47 -77 -119 -162
-167 -470 -453 -479 -444 -1 2 1 110 5 241 6 194 11 241 23 253 9 9 41 18 76
21 l60 6 6 40 c4 22 5 41 4 42 -2 2 -139 5 -306 7 l-302 3 0 -41z"/>
<path d="M2736 2378 c-3 -29 -6 -162 -6 -295 l0 -242 143 5 c78 3 3391 72
7362 154 6680 138 7631 160 7535 167 -30 3 -14876 263 -14986 263 l-41 0 -7
-52z"/>
<path d="M1515 1226 c-4 -174 -5 -319 -2 -322 4 -4 16931 306 17387 318 l95 3
-75 7 c-41 4 -3884 73 -8540 153 -4656 80 -8553 148 -8661 151 l-196 6 -8
-316z"/>
<path d="M10087 485 c-5543 -67 -10080 -125 -10083 -127 -6 -6 -715 6 10508
-189 5471 -96 9950 -170 9955 -166 4 5 9 143 11 308 l3 299 -158 -1 c-87 -1
-4693 -57 -10236 -124z"/>
</g>
</svg>
